<?xml version="1.0" encoding="UTF-8" standalone="no"?>
<!DOCTYPE svg PUBLIC "-//W3C//DTD SVG 1.1//EN"
 "http://www.w3.org/Graphics/SVG/1.1/DTD/svg11.dtd">
<!-- Generated by graphviz version 5.0.0 (20220707.1540)
 -->
<!-- Title: StorageDiagram Pages: 1 -->
<svg width="2240pt" height="575pt"
 viewBox="0.00 0.00 2240.33 575.00" xmlns="http://www.w3.org/2000/svg" xmlns:xlink="http://www.w3.org/1999/xlink">
<g id="graph0" class="graph" transform="scale(1 1) rotate(0) translate(4 571)">
<title>StorageDiagram</title>
<polygon fill="white" stroke="transparent" points="-4,4 -4,-571 2236.33,-571 2236.33,4 -4,4"/>
<!-- 6 -->
<g id="node1" class="node">
<title>6</title>
<polygon fill="#f2f2f2" stroke="black" points="0,-239.9 0,-463.1 527.68,-463.1 527.68,-239.9 0,-239.9"/>
<text text-anchor="middle" x="263.84" y="-446.5" font-family="Courier New" font-size="14.00">GasContract &lt;&lt;Contract&gt;&gt;</text>
<polyline fill="none" stroke="black" points="0,-438.3 527.68,-438.3 "/>
<text text-anchor="middle" x="24.8" y="-421.7" font-family="Courier New" font-size="14.00">slot</text>
<polyline fill="none" stroke="black" points="0,-413.5 49.61,-413.5 "/>
<text text-anchor="middle" x="24.8" y="-396.9" font-family="Courier New" font-size="14.00">0</text>
<polyline fill="none" stroke="black" points="0,-388.7 49.61,-388.7 "/>
<text text-anchor="middle" x="24.8" y="-372.1" font-family="Courier New" font-size="14.00">1</text>
<polyline fill="none" stroke="black" points="0,-363.9 49.61,-363.9 "/>
<text text-anchor="middle" x="24.8" y="-347.3" font-family="Courier New" font-size="14.00">2</text>
<polyline fill="none" stroke="black" points="0,-339.1 49.61,-339.1 "/>
<text text-anchor="middle" x="24.8" y="-322.5" font-family="Courier New" font-size="14.00">3</text>
<polyline fill="none" stroke="black" points="0,-314.3 49.61,-314.3 "/>
<text text-anchor="middle" x="24.8" y="-297.7" font-family="Courier New" font-size="14.00">4</text>
<polyline fill="none" stroke="black" points="0,-289.5 49.61,-289.5 "/>
<text text-anchor="middle" x="24.8" y="-272.9" font-family="Courier New" font-size="14.00">5&#45;9</text>
<polyline fill="none" stroke="black" points="0,-264.7 49.61,-264.7 "/>
<text text-anchor="middle" x="24.8" y="-248.1" font-family="Courier New" font-size="14.00">10</text>
<polyline fill="none" stroke="black" points="49.61,-239.9 49.61,-438.3 "/>
<text text-anchor="middle" x="288.64" y="-421.7" font-family="Courier New" font-size="14.00">type: &lt;inherited contract&gt;.variable (bytes)</text>
<polyline fill="none" stroke="black" points="49.61,-413.5 527.68,-413.5 "/>
<text text-anchor="middle" x="288.63" y="-396.9" font-family="Courier New" font-size="14.00">mapping(address=&gt;uint256): balances (32)</text>
<polyline fill="none" stroke="black" points="49.61,-388.7 527.68,-388.7 "/>
<text text-anchor="middle" x="288.53" y="-372.1" font-family="Courier New" font-size="14.00">mapping(address=&gt;Payment[]): payments (32)</text>
<polyline fill="none" stroke="black" points="49.61,-363.9 527.68,-363.9 "/>
<text text-anchor="middle" x="288.33" y="-347.3" font-family="Courier New" font-size="14.00">mapping(address=&gt;uint256): whitelist (32)</text>
<polyline fill="none" stroke="black" points="49.61,-339.1 527.68,-339.1 "/>
<text text-anchor="middle" x="288.64" y="-322.5" font-family="Courier New" font-size="14.00">mapping(address=&gt;ImportantStruct): whiteListStruct (32)</text>
<polyline fill="none" stroke="black" points="49.61,-314.3 527.68,-314.3 "/>
<text text-anchor="middle" x="160.32" y="-297.7" font-family="Courier New" font-size="14.00">unallocated (12)</text>
<polyline fill="none" stroke="black" points="271.03,-289.5 271.03,-314.3 "/>
<text text-anchor="middle" x="399.04" y="-297.7" font-family="Courier New" font-size="14.00">address: _owner (20)</text>
<polyline fill="none" stroke="black" points="49.61,-289.5 527.68,-289.5 "/>
<text text-anchor="middle" x="288.53" y="-272.9" font-family="Courier New" font-size="14.00">address[5]: administrators (160)</text>
<polyline fill="none" stroke="black" points="49.61,-264.7 527.68,-264.7 "/>
<text text-anchor="middle" x="288.63" y="-248.1" font-family="Courier New" font-size="14.00">History[]: paymentHistory (32)</text>
</g>
<!-- 1 -->
<g id="node2" class="node">
<title>1</title>
<polygon fill="#f2f2f2" stroke="black" points="563.68,-442.5 563.68,-566.5 1625.84,-566.5 1625.84,-442.5 563.68,-442.5"/>
<text text-anchor="middle" x="1094.76" y="-549.9" font-family="Courier New" font-size="14.00">Payment &lt;&lt;Struct&gt;&gt;</text>
<polyline fill="none" stroke="black" points="563.68,-541.7 1625.84,-541.7 "/>
<text text-anchor="middle" x="596.88" y="-525.1" font-family="Courier New" font-size="14.00">offset</text>
<polyline fill="none" stroke="black" points="563.68,-516.9 630.09,-516.9 "/>
<text text-anchor="middle" x="596.88" y="-500.3" font-family="Courier New" font-size="14.00">0</text>
<polyline fill="none" stroke="black" points="563.68,-492.1 630.09,-492.1 "/>
<text text-anchor="middle" x="596.88" y="-475.5" font-family="Courier New" font-size="14.00">1</text>
<polyline fill="none" stroke="black" points="563.68,-467.3 630.09,-467.3 "/>
<text text-anchor="middle" x="596.88" y="-450.7" font-family="Courier New" font-size="14.00">2</text>
<polyline fill="none" stroke="black" points="630.09,-442.5 630.09,-541.7 "/>
<text text-anchor="middle" x="1127.96" y="-525.1" font-family="Courier New" font-size="14.00">type: variable (bytes)</text>
<polyline fill="none" stroke="black" points="630.09,-516.9 1625.84,-516.9 "/>
<text text-anchor="middle" x="1127.6" y="-500.3" font-family="Courier New" font-size="14.00">uint256: amount (32)</text>
<polyline fill="none" stroke="black" points="630.09,-492.1 1625.84,-492.1 "/>
<text text-anchor="middle" x="701.1" y="-475.5" font-family="Courier New" font-size="14.00">unallocated (2)</text>
<polyline fill="none" stroke="black" points="772.11,-467.3 772.11,-492.1 "/>
<text text-anchor="middle" x="885.13" y="-475.5" font-family="Courier New" font-size="14.00">bytes8: recipientName (8)</text>
<polyline fill="none" stroke="black" points="998.14,-467.3 998.14,-492.1 "/>
<text text-anchor="middle" x="1098.56" y="-475.5" font-family="Courier New" font-size="14.00">bool: adminUpdated (1)</text>
<polyline fill="none" stroke="black" points="1198.97,-467.3 1198.97,-492.1 "/>
<text text-anchor="middle" x="1324.59" y="-475.5" font-family="Courier New" font-size="14.00">PaymentType: paymentType (1)</text>
<polyline fill="none" stroke="black" points="1450.21,-467.3 1450.21,-492.1 "/>
<text text-anchor="middle" x="1538.02" y="-475.5" font-family="Courier New" font-size="14.00">address: admin (20)</text>
<polyline fill="none" stroke="black" points="630.09,-467.3 1625.84,-467.3 "/>
<text text-anchor="middle" x="864.3" y="-450.7" font-family="Courier New" font-size="14.00">unallocated (12)</text>
<polyline fill="none" stroke="black" points="1098.51,-442.5 1098.51,-467.3 "/>
<text text-anchor="middle" x="1362.13" y="-450.7" font-family="Courier New" font-size="14.00">address: recipient (20)</text>
</g>
<!-- 6&#45;&gt;1 -->
<g id="edge1" class="edge">
<title>6:8&#45;&gt;1</title>
<path fill="none" stroke="black" d="M527.68,-376.5C557.27,-376.5 538.73,-416.6 563.68,-432.5 566.2,-434.11 568.75,-435.69 571.31,-437.24"/>
<polygon fill="black" stroke="black" points="569.71,-440.35 580.11,-442.4 573.25,-434.32 569.71,-440.35"/>
</g>
<!-- 2 -->
<g id="node3" class="node">
<title>2</title>
<polygon fill="#f2f2f2" stroke="black" points="881.73,-323.9 881.73,-423.1 1307.79,-423.1 1307.79,-323.9 881.73,-323.9"/>
<text text-anchor="middle" x="1094.76" y="-406.5" font-family="Courier New" font-size="14.00">ImportantStruct &lt;&lt;Struct&gt;&gt;</text>
<polyline fill="none" stroke="black" points="881.73,-398.3 1307.79,-398.3 "/>
<text text-anchor="middle" x="914.93" y="-381.7" font-family="Courier New" font-size="14.00">offset</text>
<polyline fill="none" stroke="black" points="881.73,-373.5 948.14,-373.5 "/>
<text text-anchor="middle" x="914.93" y="-356.9" font-family="Courier New" font-size="14.00">0</text>
<polyline fill="none" stroke="black" points="881.73,-348.7 948.14,-348.7 "/>
<text text-anchor="middle" x="914.93" y="-332.1" font-family="Courier New" font-size="14.00">1</text>
<polyline fill="none" stroke="black" points="948.14,-323.9 948.14,-398.3 "/>
<text text-anchor="middle" x="1127.96" y="-381.7" font-family="Courier New" font-size="14.00">type: variable (bytes)</text>
<polyline fill="none" stroke="black" points="948.14,-373.5 1307.79,-373.5 "/>
<text text-anchor="middle" x="1127.65" y="-356.9" font-family="Courier New" font-size="14.00">uint256: amount (32)</text>
<polyline fill="none" stroke="black" points="948.14,-348.7 1307.79,-348.7 "/>
<text text-anchor="middle" x="1023.35" y="-332.1" font-family="Courier New" font-size="14.00">unallocated (31)</text>
<polyline fill="none" stroke="black" points="1098.56,-323.9 1098.56,-348.7 "/>
<text text-anchor="middle" x="1203.17" y="-332.1" font-family="Courier New" font-size="14.00">bool: paymentStatus (1)</text>
</g>
<!-- 6&#45;&gt;2 -->
<g id="edge2" class="edge">
<title>6:12&#45;&gt;2</title>
<path fill="none" stroke="black" d="M527.68,-326.5C641.25,-326.5 767.19,-336.01 871.39,-346.48"/>
<polygon fill="black" stroke="black" points="871.11,-349.96 881.41,-347.49 871.81,-343 871.11,-349.96"/>
</g>
<!-- 3 -->
<g id="node4" class="node">
<title>3</title>
<polygon fill="#f2f2f2" stroke="black" points="935.53,-156.1 935.53,-304.9 1253.98,-304.9 1253.98,-156.1 935.53,-156.1"/>
<text text-anchor="middle" x="1094.76" y="-288.3" font-family="Courier New" font-size="14.00">address[5]: administrators &lt;&lt;Array&gt;&gt;</text>
<polyline fill="none" stroke="black" points="935.53,-280.1 1253.98,-280.1 "/>
<text text-anchor="middle" x="960.34" y="-263.5" font-family="Courier New" font-size="14.00">slot</text>
<polyline fill="none" stroke="black" points="935.53,-255.3 985.14,-255.3 "/>
<text text-anchor="middle" x="960.34" y="-238.7" font-family="Courier New" font-size="14.00">5</text>
<polyline fill="none" stroke="black" points="935.53,-230.5 985.14,-230.5 "/>
<text text-anchor="middle" x="960.34" y="-213.9" font-family="Courier New" font-size="14.00">6</text>
<polyline fill="none" stroke="black" points="935.53,-205.7 985.14,-205.7 "/>
<text text-anchor="middle" x="960.34" y="-189.1" font-family="Courier New" font-size="14.00">8</text>
<polyline fill="none" stroke="black" points="935.53,-180.9 985.14,-180.9 "/>
<text text-anchor="middle" x="960.34" y="-164.3" font-family="Courier New" font-size="14.00">9</text>
<polyline fill="none" stroke="black" points="985.14,-156.1 985.14,-280.1 "/>
<text text-anchor="middle" x="1119.26" y="-263.5" font-family="Courier New" font-size="14.00">type: variable (bytes)</text>
<polyline fill="none" stroke="black" points="985.14,-255.3 1253.38,-255.3 "/>
<text text-anchor="middle" x="1060.35" y="-238.7" font-family="Courier New" font-size="14.00">unallocated (12)</text>
<polyline fill="none" stroke="black" points="1135.56,-230.5 1135.56,-255.3 "/>
<text text-anchor="middle" x="1194.47" y="-238.7" font-family="Courier New" font-size="14.00">address (20)</text>
<polyline fill="none" stroke="black" points="985.14,-230.5 1253.38,-230.5 "/>
<text text-anchor="middle" x="1060.35" y="-213.9" font-family="Courier New" font-size="14.00">unallocated (12)</text>
<polyline fill="none" stroke="black" points="1135.56,-205.7 1135.56,-230.5 "/>
<text text-anchor="middle" x="1194.47" y="-213.9" font-family="Courier New" font-size="14.00">address (20)</text>
<polyline fill="none" stroke="black" points="985.14,-205.7 1253.38,-205.7 "/>
<text text-anchor="middle" x="1060.35" y="-189.1" font-family="Courier New" font-size="14.00">unallocated (12)</text>
<polyline fill="none" stroke="black" points="1135.56,-180.9 1135.56,-205.7 "/>
<text text-anchor="middle" x="1194.47" y="-189.1" font-family="Courier New" font-size="14.00">address (20)</text>
<polyline fill="none" stroke="black" points="985.14,-180.9 1253.38,-180.9 "/>
<text text-anchor="middle" x="1060.35" y="-164.3" font-family="Courier New" font-size="14.00">unallocated (12)</text>
<polyline fill="none" stroke="black" points="1135.56,-156.1 1135.56,-180.9 "/>
<text text-anchor="middle" x="1194.47" y="-164.3" font-family="Courier New" font-size="14.00">address (20)</text>
</g>
<!-- 6&#45;&gt;3 -->
<g id="edge3" class="edge">
<title>6:18&#45;&gt;3</title>
<path fill="none" stroke="black" d="M527.68,-277.5C661.7,-277.5 812.95,-264.26 925.38,-251.83"/>
<polygon fill="black" stroke="black" points="925.9,-255.29 935.45,-250.7 925.12,-248.33 925.9,-255.29"/>
</g>
<!-- 5 -->
<g id="node6" class="node">
<title>5</title>
<polygon fill="#f2f2f2" stroke="black" points="809.51,-45.9 809.51,-137.1 1380,-137.1 1380,-45.9 809.51,-45.9"/>
<text text-anchor="middle" x="1094.76" y="-120.5" font-family="Courier New" font-size="14.00">History[]: paymentHistory &lt;&lt;Array&gt;&gt;</text>
<text text-anchor="middle" x="1094.76" y="-103.7" font-family="Courier New" font-size="14.00">0xc65a7bb8d6351c1cf70c95a316cc6a92839c986682d98bc35f958f4883f9d2a8</text>
<polyline fill="none" stroke="black" points="809.51,-95.5 1380,-95.5 "/>
<text text-anchor="middle" x="918.22" y="-78.9" font-family="Courier New" font-size="14.00">offset</text>
<polyline fill="none" stroke="black" points="809.51,-70.7 1026.92,-70.7 "/>
<text text-anchor="middle" x="918.22" y="-54.1" font-family="Courier New" font-size="14.00">0&#45;1</text>
<polyline fill="none" stroke="black" points="1026.92,-45.9 1026.92,-95.5 "/>
<text text-anchor="middle" x="1203.34" y="-78.9" font-family="Courier New" font-size="14.00">type: variable (bytes)</text>
<polyline fill="none" stroke="black" points="1026.92,-70.7 1379.75,-70.7 "/>
<text text-anchor="middle" x="1203.33" y="-54.1" font-family="Courier New" font-size="14.00">History (64)</text>
</g>
<!-- 6&#45;&gt;5 -->
<g id="edge4" class="edge">
<title>6:22&#45;&gt;5</title>
<path fill="none" stroke="black" d="M527.68,-252.5C577.43,-252.5 524.79,-177.53 563.68,-146.5 629.53,-93.96 715.59,-71.84 799.16,-65.14"/>
<polygon fill="black" stroke="black" points="799.62,-68.62 809.34,-64.4 799.11,-61.64 799.62,-68.62"/>
</g>
<!-- 4 -->
<g id="node5" class="node">
<title>4</title>
<polygon fill="#f2f2f2" stroke="black" points="1661.84,-0.5 1661.84,-116.5 2232.33,-116.5 2232.33,-0.5 1661.84,-0.5"/>
<text text-anchor="middle" x="1947.08" y="-99.9" font-family="Courier New" font-size="14.00">History &lt;&lt;Struct&gt;&gt;</text>
<text text-anchor="middle" x="1947.08" y="-83.1" font-family="Courier New" font-size="14.00">0xc65a7bb8d6351c1cf70c95a316cc6a92839c986682d98bc35f958f4883f9d2a8</text>
<polyline fill="none" stroke="black" points="1661.84,-74.9 2232.33,-74.9 "/>
<text text-anchor="middle" x="1731.04" y="-58.3" font-family="Courier New" font-size="14.00">offset</text>
<polyline fill="none" stroke="black" points="1661.84,-50.1 1800.25,-50.1 "/>
<text text-anchor="middle" x="1731.04" y="-33.5" font-family="Courier New" font-size="14.00">0</text>
<polyline fill="none" stroke="black" points="1661.84,-25.3 1800.25,-25.3 "/>
<text text-anchor="middle" x="1731.04" y="-8.7" font-family="Courier New" font-size="14.00">1</text>
<polyline fill="none" stroke="black" points="1800.25,-0.5 1800.25,-74.9 "/>
<text text-anchor="middle" x="2016.07" y="-58.3" font-family="Courier New" font-size="14.00">type: variable (bytes)</text>
<polyline fill="none" stroke="black" points="1800.25,-50.1 2231.9,-50.1 "/>
<text text-anchor="middle" x="1893.46" y="-33.5" font-family="Courier New" font-size="14.00">unallocated (12)</text>
<polyline fill="none" stroke="black" points="1986.67,-25.3 1986.67,-50.1 "/>
<text text-anchor="middle" x="2109.28" y="-33.5" font-family="Courier New" font-size="14.00">address: updatedBy (20)</text>
<polyline fill="none" stroke="black" points="1800.25,-25.3 2231.9,-25.3 "/>
<text text-anchor="middle" x="2015.76" y="-8.7" font-family="Courier New" font-size="14.00">uint256: blockNumber (32)</text>
</g>
<!-- 5&#45;&gt;4 -->
<g id="edge5" class="edge">
<title>5:21&#45;&gt;4</title>
<path fill="none" stroke="black" d="M1380.76,-58.5C1468.77,-58.5 1564.48,-58.5 1651.7,-58.5"/>
<polygon fill="black" stroke="black" points="1651.75,-62 1661.75,-58.5 1651.75,-55 1651.75,-62"/>
</g>
</g>
</svg>
