<?xml version="1.0" encoding="UTF-8" standalone="no"?>
<!DOCTYPE svg PUBLIC "-//W3C//DTD SVG 1.1//EN"
 "http://www.w3.org/Graphics/SVG/1.1/DTD/svg11.dtd">
<!-- Generated by graphviz version 5.0.0 (20220707.1540)
 -->
<!-- Title: StorageDiagram Pages: 1 -->
<svg width="998pt" height="291pt"
 viewBox="0.00 0.00 997.74 291.20" xmlns="http://www.w3.org/2000/svg" xmlns:xlink="http://www.w3.org/1999/xlink">
<g id="graph0" class="graph" transform="scale(1 1) rotate(0) translate(4 287.2)">
<title>StorageDiagram</title>
<polygon fill="white" stroke="transparent" points="-4,4 -4,-287.2 993.74,-287.2 993.74,4 -4,4"/>
<!-- 3 -->
<g id="node1" class="node">
<title>3</title>
<polygon fill="#f2f2f2" stroke="black" points="0,-109.1 0,-282.7 527.68,-282.7 527.68,-109.1 0,-109.1"/>
<text text-anchor="middle" x="263.84" y="-266.1" font-family="Courier New" font-size="14.00">GasContract &lt;&lt;Contract&gt;&gt;</text>
<polyline fill="none" stroke="black" points="0,-257.9 527.68,-257.9 "/>
<text text-anchor="middle" x="24.8" y="-241.3" font-family="Courier New" font-size="14.00">slot</text>
<polyline fill="none" stroke="black" points="0,-233.1 49.61,-233.1 "/>
<text text-anchor="middle" x="24.8" y="-216.5" font-family="Courier New" font-size="14.00">0</text>
<polyline fill="none" stroke="black" points="0,-208.3 49.61,-208.3 "/>
<text text-anchor="middle" x="24.8" y="-191.7" font-family="Courier New" font-size="14.00">1</text>
<polyline fill="none" stroke="black" points="0,-183.5 49.61,-183.5 "/>
<text text-anchor="middle" x="24.8" y="-166.9" font-family="Courier New" font-size="14.00">2</text>
<polyline fill="none" stroke="black" points="0,-158.7 49.61,-158.7 "/>
<text text-anchor="middle" x="24.8" y="-142.1" font-family="Courier New" font-size="14.00">3</text>
<polyline fill="none" stroke="black" points="0,-133.9 49.61,-133.9 "/>
<text text-anchor="middle" x="24.8" y="-117.3" font-family="Courier New" font-size="14.00">4&#45;8</text>
<polyline fill="none" stroke="black" points="49.61,-109.1 49.61,-257.9 "/>
<text text-anchor="middle" x="288.64" y="-241.3" font-family="Courier New" font-size="14.00">type: &lt;inherited contract&gt;.variable (bytes)</text>
<polyline fill="none" stroke="black" points="49.61,-233.1 527.68,-233.1 "/>
<text text-anchor="middle" x="288.63" y="-216.5" font-family="Courier New" font-size="14.00">mapping(address=&gt;uint256): balances (32)</text>
<polyline fill="none" stroke="black" points="49.61,-208.3 527.68,-208.3 "/>
<text text-anchor="middle" x="288.33" y="-191.7" font-family="Courier New" font-size="14.00">mapping(address=&gt;uint256): whitelist (32)</text>
<polyline fill="none" stroke="black" points="49.61,-183.5 527.68,-183.5 "/>
<text text-anchor="middle" x="288.64" y="-166.9" font-family="Courier New" font-size="14.00">mapping(address=&gt;ImportantStruct): whiteListStruct (32)</text>
<polyline fill="none" stroke="black" points="49.61,-158.7 527.68,-158.7 "/>
<text text-anchor="middle" x="160.32" y="-142.1" font-family="Courier New" font-size="14.00">unallocated (12)</text>
<polyline fill="none" stroke="black" points="271.03,-133.9 271.03,-158.7 "/>
<text text-anchor="middle" x="399.04" y="-142.1" font-family="Courier New" font-size="14.00">address: _owner (20)</text>
<polyline fill="none" stroke="black" points="49.61,-133.9 527.68,-133.9 "/>
<text text-anchor="middle" x="288.53" y="-117.3" font-family="Courier New" font-size="14.00">address[5]: administrators (160)</text>
</g>
<!-- 1 -->
<g id="node2" class="node">
<title>1</title>
<polygon fill="#f2f2f2" stroke="black" points="563.68,-168.3 563.68,-267.5 989.74,-267.5 989.74,-168.3 563.68,-168.3"/>
<text text-anchor="middle" x="776.71" y="-250.9" font-family="Courier New" font-size="14.00">ImportantStruct &lt;&lt;Struct&gt;&gt;</text>
<polyline fill="none" stroke="black" points="563.68,-242.7 989.74,-242.7 "/>
<text text-anchor="middle" x="596.88" y="-226.1" font-family="Courier New" font-size="14.00">offset</text>
<polyline fill="none" stroke="black" points="563.68,-217.9 630.09,-217.9 "/>
<text text-anchor="middle" x="596.88" y="-201.3" font-family="Courier New" font-size="14.00">0</text>
<polyline fill="none" stroke="black" points="563.68,-193.1 630.09,-193.1 "/>
<text text-anchor="middle" x="596.88" y="-176.5" font-family="Courier New" font-size="14.00">1</text>
<polyline fill="none" stroke="black" points="630.09,-168.3 630.09,-242.7 "/>
<text text-anchor="middle" x="809.92" y="-226.1" font-family="Courier New" font-size="14.00">type: variable (bytes)</text>
<polyline fill="none" stroke="black" points="630.09,-217.9 989.74,-217.9 "/>
<text text-anchor="middle" x="809.6" y="-201.3" font-family="Courier New" font-size="14.00">uint256: amount (32)</text>
<polyline fill="none" stroke="black" points="630.09,-193.1 989.74,-193.1 "/>
<text text-anchor="middle" x="705.3" y="-176.5" font-family="Courier New" font-size="14.00">unallocated (31)</text>
<polyline fill="none" stroke="black" points="780.51,-168.3 780.51,-193.1 "/>
<text text-anchor="middle" x="885.13" y="-176.5" font-family="Courier New" font-size="14.00">bool: paymentStatus (1)</text>
</g>
<!-- 3&#45;&gt;1 -->
<g id="edge1" class="edge">
<title>3:5&#45;&gt;1</title>
<path fill="none" stroke="black" d="M527.68,-170.9C536.11,-170.9 544.67,-171.17 553.29,-171.66"/>
<polygon fill="black" stroke="black" points="553.23,-175.16 563.44,-172.33 553.7,-168.17 553.23,-175.16"/>
</g>
<!-- 2 -->
<g id="node3" class="node">
<title>2</title>
<polygon fill="#f2f2f2" stroke="black" points="617.49,-0.5 617.49,-149.3 935.94,-149.3 935.94,-0.5 617.49,-0.5"/>
<text text-anchor="middle" x="776.71" y="-132.7" font-family="Courier New" font-size="14.00">address[5]: administrators &lt;&lt;Array&gt;&gt;</text>
<polyline fill="none" stroke="black" points="617.49,-124.5 935.94,-124.5 "/>
<text text-anchor="middle" x="642.29" y="-107.9" font-family="Courier New" font-size="14.00">slot</text>
<polyline fill="none" stroke="black" points="617.49,-99.7 667.09,-99.7 "/>
<text text-anchor="middle" x="642.29" y="-83.1" font-family="Courier New" font-size="14.00">4</text>
<polyline fill="none" stroke="black" points="617.49,-74.9 667.09,-74.9 "/>
<text text-anchor="middle" x="642.29" y="-58.3" font-family="Courier New" font-size="14.00">5</text>
<polyline fill="none" stroke="black" points="617.49,-50.1 667.09,-50.1 "/>
<text text-anchor="middle" x="642.29" y="-33.5" font-family="Courier New" font-size="14.00">7</text>
<polyline fill="none" stroke="black" points="617.49,-25.3 667.09,-25.3 "/>
<text text-anchor="middle" x="642.29" y="-8.7" font-family="Courier New" font-size="14.00">8</text>
<polyline fill="none" stroke="black" points="667.09,-0.5 667.09,-124.5 "/>
<text text-anchor="middle" x="801.21" y="-107.9" font-family="Courier New" font-size="14.00">type: variable (bytes)</text>
<polyline fill="none" stroke="black" points="667.09,-99.7 935.33,-99.7 "/>
<text text-anchor="middle" x="742.3" y="-83.1" font-family="Courier New" font-size="14.00">unallocated (12)</text>
<polyline fill="none" stroke="black" points="817.51,-74.9 817.51,-99.7 "/>
<text text-anchor="middle" x="876.42" y="-83.1" font-family="Courier New" font-size="14.00">address (20)</text>
<polyline fill="none" stroke="black" points="667.09,-74.9 935.33,-74.9 "/>
<text text-anchor="middle" x="742.3" y="-58.3" font-family="Courier New" font-size="14.00">unallocated (12)</text>
<polyline fill="none" stroke="black" points="817.51,-50.1 817.51,-74.9 "/>
<text text-anchor="middle" x="876.42" y="-58.3" font-family="Courier New" font-size="14.00">address (20)</text>
<polyline fill="none" stroke="black" points="667.09,-50.1 935.33,-50.1 "/>
<text text-anchor="middle" x="742.3" y="-33.5" font-family="Courier New" font-size="14.00">unallocated (12)</text>
<polyline fill="none" stroke="black" points="817.51,-25.3 817.51,-50.1 "/>
<text text-anchor="middle" x="876.42" y="-33.5" font-family="Courier New" font-size="14.00">address (20)</text>
<polyline fill="none" stroke="black" points="667.09,-25.3 935.33,-25.3 "/>
<text text-anchor="middle" x="742.3" y="-8.7" font-family="Courier New" font-size="14.00">unallocated (12)</text>
<polyline fill="none" stroke="black" points="817.51,-0.5 817.51,-25.3 "/>
<text text-anchor="middle" x="876.42" y="-8.7" font-family="Courier New" font-size="14.00">address (20)</text>
</g>
<!-- 3&#45;&gt;2 -->
<g id="edge2" class="edge">
<title>3:11&#45;&gt;2</title>
<path fill="none" stroke="black" d="M527.68,-121.9C553.62,-121.9 580.83,-119.39 607.32,-115.52"/>
<polygon fill="black" stroke="black" points="608.08,-118.95 617.44,-113.98 607.02,-112.03 608.08,-118.95"/>
</g>
</g>
</svg>
